<svg width="728" height="183" viewBox="0 0 728 183" fill="none" xmlns="http://www.w3.org/2000/svg">
<rect x="9" y="9" width="710" height="165" stroke="white" stroke-width="18"/>
<path d="M154.428 57.8L171.42 125H158.172L154.524 110.504H129.372L122.844 125H109.596L140.604 57.8H154.428ZM145.692 74.696L134.652 98.984H151.644L145.884 74.696H145.692ZM220.46 101.384L218.732 118.568L206.924 125H180.044L181.196 113.768H206.06L206.828 106.376H193.1L182.636 99.944L184.364 83.432L196.172 77H222.092L220.94 88.232H197.036L196.268 94.952H209.996L220.46 101.384ZM232.45 88.232L233.602 77H242.434L243.298 68.936L257.218 61.352L255.586 77H266.146L264.994 88.232H254.434L251.746 113.768H262.306L261.154 125H248.578L238.114 118.568L241.282 88.232H232.45ZM307.11 88.232H290.598L286.758 125H273.606L278.598 77H289.446L291.366 80.936L298.566 77H308.262L307.11 88.232ZM356.184 119.048L344.376 125.48H323.928L313.464 119.048L317.304 82.952L329.112 76.52H349.56L360.024 82.952L356.184 119.048ZM329.88 87.752L327.096 114.248H343.512L346.296 87.752H329.88ZM397.341 101.48L398.589 89.96H423.069L419.997 119.048L408.189 125.48H381.021L370.557 119.048L376.413 63.752L388.221 57.32H415.389L425.853 63.752L424.413 77.48H410.973L411.837 68.84H389.277L384.573 113.96H407.133L408.381 101.48H397.341ZM464.449 114.248L467.233 87.752H450.817L448.033 114.248H464.449ZM481.633 76.52L476.449 125.48H470.113L463.681 121.544L456.481 125.48H444.865L434.401 119.048L438.241 82.952L450.049 76.52H461.665L468.001 80.456L475.297 76.52H481.633ZM562.823 82.952L558.407 125H545.255L549.095 87.752H535.079L531.239 125H518.087L521.927 87.752H507.911L504.071 125H490.919L496.007 76.52H506.855L508.679 80.456L515.975 76.52H525.191L533.543 81.704L543.143 76.52H552.359L562.823 82.952ZM613.755 113.768L612.603 125H583.899L573.435 118.568L577.179 82.952L588.987 76.52H606.555L617.019 82.952L614.523 105.896H587.835L587.067 113.768H613.755ZM589.755 87.752L588.891 96.008H602.427L603.291 87.752H589.755Z" fill="white"/>
</svg>
